<svg xmlns="http://www.w3.org/2000/svg" version="1.1" xmlns:xlink="http://www.w3.org/1999/xlink" xmlns:svgjs="http://svgjs.com/svgjs" width="1000" height="1000"><rect width="1000" height="1000" rx="200" ry="200" fill="#99c1f1"></rect><g transform="matrix(0.8,0,0,0.8,100.0000061035156,100)"><svg xmlns="http://www.w3.org/2000/svg" version="1.1" xmlns:xlink="http://www.w3.org/1999/xlink" xmlns:svgjs="http://svgjs.com/svgjs" width="1000" height="1000"><svg version="1.1" id="Layer_1" x="0px" y="0px" width="1000" viewBox="0 0 1000 1000" enable-background="new 0 0 1600 1066" xml:space="preserve" height="1000" xmlns="http://www.w3.org/2000/svg" xmlns:svg="http://www.w3.org/2000/svg"><defs id="defs543"></defs>












































































































































































































































































































































































































































































































































<g id="g543" transform="translate(-311.78198,-23.933132)"><path fill="#020201" opacity="1" stroke="none" d="m 779.67821,354.44714 v -33.34179 c -3.35107,-1.24424 -8.5375,-3.16989 -14.66124,-5.68507 -3.1441,-1.48557 -5.35053,-2.38163 -7.55706,-3.2777 -0.81244,-0.4347 -1.62486,-0.86938 -3.1819,-1.90707 -5.26788,-3.75041 -9.79127,-6.89784 -14.31466,-10.04528 0,0 -0.0941,0.15195 -0.23979,-0.44784 -3.50961,-4.31784 -6.87335,-8.03584 -10.23708,-11.75382 0,-6e-5 -0.0812,0.14462 -0.086,-0.53713 -1.29178,-3.10252 -8.56618,-11.21559 -9.86041,-13.60267 -6.0384,-11.13719 -5.1729,-17.51836 -7.26386,-28.62171 0.0862,-8.6263 0.69846,-16.54807 2.04402,-24.97323 1.06756,-6.68519 4.53831,-13.08227 7.47924,-19.35549 10.64372,-22.70468 28.22333,-37.23592 51.92274,-45.5014 14.52305,-5.0651 28.6651,-3.72877 44.53787,-1.58266 7.36092,2.04135 13.31738,4.05889 19.27376,6.07646 0,0 0.41291,0.62513 1.22853,0.97197 9.98976,7.84876 19.164,15.35068 28.33823,22.85266 12.33716,15.43301 18.89471,33.60089 18.776,52.77627 -0.17062,27.55552 -11.25386,51.30787 -33.48294,68.48333 -8.87746,6.85919 -18.05414,14.05529 -30.28515,14.91009 -1.40295,0.0981 -3.65368,4.23682 -3.58799,6.44496 0.32391,10.90726 1.2952,21.7953 2.06056,33.01924 h 52.34364 c 8.27388,-15.00303 23.91878,-22.83523 39.84807,-18.54163 17.82447,4.80439 27.34007,15.86499 29.24407,33.67416 1.9772,18.49296 -16.35078,37.95924 -33.48967,37.83057 -14.21276,-0.10674 -25.56671,-3.6885 -33.5025,-15.97478 -1.01983,-1.57874 -3.26067,-3.33008 -4.96218,-3.35741 -15.89876,-0.25528 -31.80325,-0.15125 -46.48908,-0.15125 0,23.22869 -0.22212,45.73135 0.0561,68.22772 0.35105,28.38512 0.87609,56.77249 1.76105,85.14533 0.83775,26.86424 2.23752,53.71087 2.85126,81.56714 -5.90038,2.46117 -11.26728,3.90161 -16.62237,5.38474 -7.34345,2.03378 -14.66573,4.14502 -22.02015,6.13786 -5.94541,1.611 -11.92478,3.096 -17.88913,4.63695 0.49138,-29.17871 0.92699,-58.35843 1.49239,-87.5357 0.42421,-21.89217 0.77656,-43.78994 1.58822,-65.66936 1.19639,-32.25112 0.54176,-64.70547 2.00764,-98.11723 -17.15039,0 -31.37955,0.15945 -47.83719,0.33793 -1.19181,0.0121 -2.63598,1.54339 -3.50599,2.70928 -11.81776,15.83821 -27.75378,20.43501 -45.72042,14.20807 -8.06442,-2.79498 -14.43478,-9.16575 -18.82283,-18.24801 -7.07217,-14.63789 -2.45867,-27.43183 4.52467,-38.69335 4.5843,-7.39238 14.10702,-12.10541 24.42462,-12.54969 9.4989,-0.40904 18.13532,1.26921 26.80378,7.4881 4.59835,4.45962 8.1298,11.02456 12.14805,11.33755 15.84956,1.23452 31.85414,0.6057 47.79323,0.27999 1.05775,-0.0216 2.04937,-3.27755 3.07177,-5.0291 m 69.3962,-116.17673 c -0.30315,-1.99472 -0.81627,-3.98298 -0.87761,-5.98515 -0.78483,-25.61615 -26.34685,-44.44049 -48.67442,-43.82158 -23.4444,0.6498 -47.77638,17.2095 -48.46946,48.1038 -0.59138,26.35796 18.24616,47.3524 46.08499,49.69332 23.95007,2.01387 50.09549,-16.73029 51.9365,-47.99039 z" id="path4" style="stroke-width:1.74453"></path><path fill="#6F4030" opacity="1" stroke="none" d="m 1009.8584,755.69207 c 1.5037,0.39928 3.0073,0.79857 5.4895,1.40177 1.2642,0.14502 1.55,0.086 1.8358,0.0267 1.3179,0.0884 2.6356,0.17665 5.3018,0.38173 28.7455,1.07829 56.1385,2.24243 83.5435,2.83987 5.8603,0.12766 11.7654,-1.80075 17.6499,-2.78205 1.8542,-0.0555 3.7083,-0.11106 6.8526,-0.18581 3.214,-0.66985 5.1378,-1.32043 7.0619,-1.97101 10.6837,-2.22283 21.3542,-4.51115 32.0575,-6.6341 3.8976,-0.77314 7.8731,-1.15262 13.2651,-1.76466 6.4658,-1.09384 11.4801,-2.13466 16.494,-3.17549 1.1339,-0.13049 2.2676,-0.26097 4.3725,-0.45562 0.9708,-0.0641 1.7911,-0.31005 1.7911,-0.31005 3.0834,-0.48256 6.1666,-0.96501 10.3618,-1.54074 1.495,-0.52366 1.8781,-0.95426 2.2612,-1.38496 3.0787,0 6.1574,0 9.236,0 0.3651,0.91475 0.7301,1.82951 1.0951,2.74426 -14.9518,6.75303 -29.9036,13.50607 -45.9217,20.81449 -4.6581,1.85378 -8.2497,3.15207 -11.8415,4.45036 -6.0644,1.37963 -12.1286,2.75926 -19.3289,4.54777 -3.1363,0.74417 -5.1371,1.07937 -7.1379,1.41456 -1.2469,0.22882 -2.4938,0.45774 -5.112,0.75471 -9.5882,0.73449 -17.805,1.40114 -26.0218,2.06781 -4.7141,-0.12658 -9.4282,-0.25322 -15.5193,-0.69382 -8.5385,-1.14335 -15.7001,-1.9725 -22.8616,-2.80164 -0.7851,-0.0938 -1.5703,-0.18762 -3.399,-0.78453 -4.2098,-0.78612 -7.3759,-1.06925 -10.542,-1.35227 0,0 -0.2826,-0.37033 -0.8974,-0.73662 -1.9172,0.0108 -3.2198,0.38897 -4.5224,0.76665 -1.2104,0.0122 -2.421,0.0255 -4.3887,-0.52793 -1.8926,-1.24003 -3.028,-1.91382 -4.1635,-2.58772 -2.404,-0.16749 -4.808,-0.33498 -8.4401,-1.00228 -8.4709,-1.26591 -15.7137,-2.03213 -22.9567,-2.79834 -3.0398,-0.55688 -6.0798,-1.11366 -10.4406,-1.69694 -2.6469,-0.0333 -3.9729,-0.0402 -6.02144,-0.0522 -13.882,-1.36579 -27.0224,-2.96393 -40.2052,-4.04053 -33.01535,-2.69665 -65.72012,-2.06853 -97.10415,10.482 -29.35232,11.73812 -58.77768,23.30087 -88.00191,35.35075 -19.07433,7.86489 -37.84712,16.46127 -57.43127,24.67593 -7.12933,2.24827 -13.58254,4.55032 -20.03562,6.85248 -8.52376,2.44431 -17.04764,4.88861 -26.61233,7.98499 -22.30913,5.19953 -43.39451,11.26877 -64.89856,13.85 -19.9614,2.39607 -40.40387,1.91819 -60.57014,1.1062 -15.4576,-0.62225 -30.81489,-3.73481 -46.58926,-6.159 -1.45918,-0.5342 -2.54589,-0.64919 -4.19246,-0.90783 -1.70961,-0.24256 -2.85936,-0.34147 -4.29042,-0.83159 -0.89091,-0.46978 -1.50039,-0.54836 -2.7498,-0.78953 -1.94566,-0.35288 -3.25162,-0.54325 -4.81919,-1.1899 -1.29381,-0.47882 -2.3259,-0.5014 -3.88388,-0.68827 -1.24515,-0.30537 -1.96441,-0.44635 -2.68366,-0.58733 0,0 -0.0691,0.16196 -0.17932,-0.26002 -0.66687,-0.49405 -1.22342,-0.56614 -1.78009,-0.63822 -20.08513,-3.06689 -38.61685,-9.65403 -53.92858,-24.91007 0.51142,-2.14106 1.11737,-3.12545 1.72334,-4.10983 6.47141,1.86102 12.94292,3.72203 20.42384,6.17497 4.85751,1.20991 8.70552,1.82801 12.55363,2.44601 2.47093,0.67773 4.94185,1.35547 8.67645,2.25722 2.62415,0.47712 3.9845,0.73012 5.34497,0.983 0,0 0.6756,0.34765 1.59175,0.4504 5.29024,1.14517 9.66413,2.1877 14.03814,3.23011 1.85622,0.25683 3.71234,0.51365 6.51729,1.22151 1.94738,0.47586 2.94614,0.50067 3.9448,0.52537 1.89775,0.13843 3.79539,0.27695 6.76176,0.9993 9.50731,1.32394 17.9461,2.06418 26.38479,2.80441 5.52844,0.61778 11.05698,1.23568 17.67138,2.13989 22.75687,0.27865 44.42777,0.27119 66.09868,0.26363 3.55092,-0.21732 7.10175,-0.43464 12.13741,-0.64823 10.31429,-1.11887 19.1889,-1.97538 27.95736,-3.45916 5.73116,-0.96979 11.30837,-2.84912 16.95456,-4.32118 0.92423,0.24416 1.84856,0.4882 3.81862,0.69977 12.96346,-3.28995 24.881,-6.54743 37.32496,-10.07696 3.04122,-1.56118 5.45763,-3.11702 8.08954,-4.08917 7.95987,-2.94028 16.20114,-5.19803 23.967,-8.5654 11.11916,-4.82174 22.48598,-9.50357 32.60074,-16.02352 4.84389,-3.12247 13.50469,-3.92733 13.87854,-12.77064 1.18701,0.81989 1.84643,1.59504 2.50574,2.3702 0.34552,-0.93008 1.05902,-2.6414 0.98353,-2.67696 -2.56984,-1.2098 -5.12786,-2.6234 -7.86221,-3.27568 -19.01992,-4.53724 -37.93709,-9.70291 -57.15998,-13.14268 -25.25951,-4.51997 -50.74477,-7.82004 -76.17871,-11.31188 -25.69279,-3.5274 -52.0206,-4.29915 -77.03778,-10.46624 -43.84566,-10.80899 -86.93714,-24.70201 -130.26127,-37.58295 -8.68476,-2.58215 -16.99791,-6.41412 -24.85875,-9.81902 1.4628,-0.22892 2.30174,-0.30851 3.89103,-0.30734 4.28062,0.0924 7.81089,0.10405 11.7281,0.57615 1.92629,0.62369 3.46565,0.78693 5.0051,0.95016 4.63637,0.15976 9.27263,0.31949 15.33919,0.70823 7.40768,0.6624 13.38512,1.09577 19.7754,1.96217 1.93757,0.53196 3.46223,0.63088 5.58997,0.87855 2.51245,0.86551 4.42193,1.58227 6.45661,2.85415 1.76562,1.31669 3.4059,2.07812 5.25532,3.32273 1.19798,0.80424 2.18706,1.12548 3.33659,1.99967 1.85229,1.18296 3.54411,1.81309 5.70583,2.76821 2.44782,1.31872 4.42575,2.31227 6.62643,3.86493 2.44473,1.2837 4.66682,2.00838 7.40074,2.97552 1.87699,0.70414 3.24204,1.16593 4.86444,2.12573 1.28307,0.69636 2.30876,0.89483 3.93724,1.35045 9.62239,2.99416 18.53353,6.22331 27.71053,8.24693 4.17351,0.92017 8.87312,-0.54529 13.95595,-0.72842 8.93924,2.2963 17.25664,4.39242 26.18216,6.60546 1.99752,1.30702 3.38673,2.49712 4.86114,4.08778 0.3912,0.94106 0.85277,1.17616 2.05758,1.17819 1.37313,0.0154 2.15872,-0.0417 3.56849,-0.034 5.23082,0.65058 9.82247,1.47312 14.44767,1.7636 6.11437,0.38406 12.33258,-0.20327 18.36476,0.63896 7.39701,1.03305 14.5782,3.85173 21.9799,4.5498 9.03859,0.85257 18.21005,0.2694 27.32243,0.40846 1.09235,0.0166 2.15468,0.88142 3.26568,0.98704 5.20698,0.49438 10.42236,0.92264 15.64243,1.2525 3.87037,0.24458 7.75276,0.30187 12.25039,0.85172 19.31508,0.45689 38.00951,0.5047 57.46407,0.37607 33.44161,-0.17654 66.12328,-0.17654 98.62915,-0.17654 -47.36603,-12.27678 -94.27048,-28.8983 -145.16071,-28.68534 -2.83072,-0.68454 -5.1794,-0.97672 -9.9282,-1.56756 9.89349,-2.46369 17.30552,-4.30938 25.2427,-5.65653 7.77022,0.66655 15.02987,0.59905 22.2578,1.04486 25.89808,1.59728 51.80786,3.09084 77.6676,5.18633 13.71062,1.11098 27.32722,3.38163 40.9155,5.15192 -0.0709,0.0231 -0.10067,-0.1228 0.18751,0.45275 1.96941,0.82584 3.65081,1.07596 6.04389,1.26539 6.55169,1.27506 12.39188,2.61073 18.75373,4.32767 3.05325,0.90752 5.58509,1.43139 8.11585,1.9608 31.83453,6.66104 63.66863,13.32294 95.50297,19.98451 z" id="path6" style="fill:#14183e;fill-opacity:1;stroke-width:1.74453"></path><path fill="#020201" opacity="1" stroke="none" d="m 716.94497,829.18615 c 18.90781,-8.26864 37.6806,-16.86502 56.75493,-24.7299 29.22423,-12.04989 58.64959,-23.61264 88.00191,-35.35075 31.38403,-12.55054 64.0888,-13.17865 97.10415,-10.482 13.1828,1.07659 26.3232,2.67473 40.0813,4.62615 -3.9137,4.14517 -8.3402,7.81525 -12.9526,11.23457 -27.5246,20.40436 -57.66875,36.09792 -89.19248,49.25474 -38.05752,15.88416 -75.38875,32.7117 -96.48894,72.22669 -18.33783,-30.50196 -43.80403,-50.51702 -75.88409,-62.3859 -0.86291,-0.42208 -1.7258,-0.84404 -3.29944,-1.84696 -1.84877,-1.2361 -2.9867,-1.89136 -4.12474,-2.54664 z" id="path7" style="stroke-width:1.74453"></path><path fill="#713F2D" opacity="1" stroke="none" d="m 771.36133,644.45753 c 6.31328,-2.06987 12.29266,-3.55487 18.23805,-5.16587 7.35443,-1.99285 14.6767,-4.10408 22.02015,-6.13787 5.3551,-1.48313 10.72201,-2.92355 16.59564,-4.57061 17.39677,-3.26355 34.2816,-6.33949 52.4709,-9.38443 2.16416,-0.57902 3.02376,-1.18904 3.88345,-1.79905 1.8277,0.009 3.65529,0.0202 6.74314,0.1 2.65524,-0.57784 4.05032,-1.22524 5.4455,-1.87251 2.39819,0.0259 4.7965,0.0517 8.49958,0.19091 2.71849,-0.42314 4.13209,-0.95963 5.54559,-1.49612 5.90004,-0.39556 11.79998,-0.79113 18.86563,-0.85991 3.1854,-0.1923 5.2052,-0.71143 7.2249,-1.23056 22.1726,0.24185 44.3451,0.48372 67.26854,0.59116 0.7509,-0.1344 0.7473,-0.26652 1.216,0.28057 16.9753,2.52416 33.4818,4.50134 50.5938,6.53694 4.0268,0.58829 7.4481,1.11817 11.382,2.1772 8.1591,1.95042 15.8055,3.37174 23.982,4.96826 3.2259,0.96587 5.8967,1.85953 8.6229,2.52609 6.0813,1.48679 12.1901,2.86015 18.2877,4.27982 11.7789,4.06665 23.5579,8.13324 35.6527,12.86034 -2.3887,1.00536 -5.0933,1.35035 -7.7978,1.69534 -5.2427,-0.0729 -10.4853,-0.14577 -16.9588,-0.74535 -6.2085,-0.67799 -11.1863,-0.82929 -16.1639,-0.98056 -9.28,-0.17552 -18.5599,-0.35105 -29.0482,-0.83516 -2.2082,-0.23344 -3.2082,-0.15832 -4.2081,-0.0833 -2.8411,-0.32694 -5.6821,-0.65387 -10.0539,-1.12365 -12.1709,-0.0108 -22.8112,0.12212 -34.2524,0.18031 -56.20914,1.67176 -111.62587,3.19976 -167.01957,5.3258 -12.93696,0.49652 -25.79607,3.02254 -39.40384,4.7683 -20.27401,2.9554 -39.83506,5.7573 -60.13528,8.3789 -15.35942,2.98096 -30.43189,4.80775 -44.50731,9.57726 -30.75208,10.42039 -61.87917,16.0412 -94.17124,12.58163 0.5999,-1.00014 1.02016,-1.65493 2.25648,-2.39416 26.58347,0.4805 51.62546,-2.50558 74.46038,-15.65495 2.82806,-1.62857 5.07058,-4.27407 7.58453,-6.4483 -0.43709,-0.8696 -0.87419,-1.73926 -1.31128,-2.60886 -3.93648,0 -7.903,-0.31629 -11.80435,0.0544 -17.56532,1.66915 -35.19679,2.94699 -52.64584,5.46434 -26.00902,3.75233 -51.19944,-1.28797 -77.27672,-5.44843 -14.1656,-1.7136 -27.585,-3.51211 -41.70716,-5.40183 -9.16562,-1.2394 -17.60813,-2.57991 -26.0973,-3.47969 -7.86593,-0.83367 -15.78171,-1.19623 -23.76052,-2.28353 0.91582,-1.40875 1.9166,-2.30013 2.91728,-3.19146 0,0 0.45146,-0.14709 1.19201,-0.0273 3.24013,-0.32858 5.7397,-0.77701 8.62162,-0.58498 18.52066,0.30687 36.65894,-0.0267 55.54907,-0.47724 5.08219,0.37182 9.41254,0.86056 13.74299,1.34929 14.60397,1.14092 29.20783,2.28181 45.03608,3.7247 2.67344,0.4101 4.12251,0.51818 5.57166,0.6263 31.94006,1.7341 63.88011,3.4682 97.08768,5.2344 2.19121,-0.37981 3.115,-0.79176 4.03881,-1.20367 3.51919,-0.0381 7.0384,-0.0761 11.90145,-0.007 2.75405,-0.41452 4.16414,-0.93637 5.57423,-1.45821 2.94027,-0.13185 5.88055,-0.26376 10.14489,-0.28516 2.71657,-0.52824 4.10909,-1.167 5.50159,-1.80576 1.8262,-0.0219 3.65251,-0.0437 6.74867,0.0564 2.65386,-0.58259 4.03776,-1.28721 5.42154,-1.99182 0.75632,0.0502 1.51252,0.10054 3.3565,0.21562 1.95866,-0.47202 2.82965,-1.00883 3.70064,-1.54565 1.67618,-0.21092 3.35224,-0.4218 5.37724,-1.16156 z" id="path8" style="fill:#14183e;fill-opacity:1;stroke-width:1.74453"></path><path fill="#030202" opacity="1" stroke="none" d="m 561.75586,643.46452 c -4.18596,0.10553 -8.51631,-0.38322 -14.3679,-0.80508 -4.41415,0.007 -7.35742,-0.42607 -10.19058,-0.0432 -7.42044,1.00281 -10.40256,-1.81337 -10.3653,-9.4474 0.0281,-5.75002 -1.56203,-11.50791 -2.60529,-18.40959 -11.22681,9.74846 -21.61384,18.76773 -32.00086,27.78698 -2.49956,0.44844 -4.99913,0.89687 -8.13309,1.43778 -1.05402,-16.39104 -1.62581,-32.87275 -1.80321,-49.35877 -0.0549,-5.09512 0.96405,-10.20169 2.04171,-16.31613 0.12847,-2.63058 -0.29344,-4.24814 -0.71531,-5.8657 0,0 -0.17121,-0.71569 0.47744,-1.28929 3.5766,-11.2216 6.50442,-21.86954 9.43224,-32.51749 0.14587,-0.34844 0.29175,-0.69684 0.96416,-1.88209 3.12064,-7.79626 5.71488,-14.75559 8.30909,-21.715 41.11824,23.05998 70.61271,56.95213 93.46744,99.33814 -7.27532,0 -12.94367,0 -19.5553,-0.49028 -1.49378,-0.65441 -2.04417,-0.81854 -2.59466,-0.98268 -0.77185,-0.11309 -1.54382,-0.22616 -3.39121,-0.83862 -9.24792,-1.39044 -17.42031,-2.28144 -27.21116,-3.34889 3.6704,6.95433 6.61942,12.54186 9.69566,18.68639 1.73889,3.04479 3.35075,5.53263 4.96262,8.02044 1.14624,2.48206 2.29258,4.9641 3.58351,8.04046 z" id="path17" style="stroke-width:1.74453"></path><path fill="#020201" opacity="1" stroke="none" d="m 1068.833,621.61023 c -3.4215,-0.52989 -14.1487,-2.11317 -18.4187,-3.24199 -1.1996,-3.52004 3.7638,-5.70979 3.4221,-8.55104 -15.5737,0.87185 -32.2503,1.80538 -48.9268,2.73893 0,0 0,0.13211 0.067,0.14968 5.8962,-10.12932 10.9258,-20.85975 17.7647,-30.27612 8.6497,-11.90943 17.7907,-23.80648 28.5215,-33.76794 11.9606,-11.10304 25.9415,-20.03035 39.0504,-29.89478 1.7958,-1.35136 3.6353,-2.64475 6.0034,-4.36299 17.6487,37.60776 23.488,76.87829 21.9574,118.37004 -6.1244,-0.60208 -12.2333,-1.97543 -18.3146,-3.46223 -2.7262,-0.66656 -5.397,-1.56024 -8.8407,-3.10777 -5.5494,-4.07251 -10.3508,-7.38801 -12.8851,-9.13799 -2.5513,3.09123 -2.569,2.2972 -3.5845,6.12472 z" id="path23" style="stroke-width:1.74453"></path><path fill="#030202" opacity="1" stroke="none" d="m 1009.9417,755.16681 c -31.91764,-6.13632 -63.75174,-12.79822 -95.58627,-19.45925 -2.53076,-0.52942 -5.0626,-1.05328 -7.32802,-2.08154 18.19503,-0.13211 35.37755,-2.93878 51.82055,-10.69698 35.0512,-16.53835 58.27424,-44.77026 78.43694,-77.07526 11.2931,-0.057 21.7755,-0.0507 32.2581,-0.0447 0.063,0.28845 0.1252,0.5769 0.1061,1.99636 -0.424,3.36715 -0.5988,5.64433 -1.1342,7.83325 -5.2526,21.47205 -14.6879,41.15708 -25.8144,60.11185 0,0 -0.6652,0.23191 -1.247,0.87398 -4.0176,5.81549 -7.4534,10.98903 -10.8894,16.16248 -1.4578,1.42648 -2.9155,2.85296 -5.0925,4.99412 -4.5344,5.22956 -8.3492,9.74454 -12.164,14.25951 -1.0943,0.86695 -2.1885,1.73389 -3.3659,3.1261 z" id="path28" style="stroke-width:1.74453"></path><path fill="#CDBBB5" opacity="1" stroke="none" d="m 586.68637,750.56175 c -18.85893,-4.65074 -37.71775,-9.30159 -57.26305,-13.9026 -3.13065,-0.63684 -5.57506,-1.32352 -9.12375,-2.50404 -8.91966,-2.56548 -16.7347,-4.63711 -24.54986,-6.70874 -7.0548,-2.22423 -14.10949,-4.44833 -22.08701,-7.06055 -1.33939,-0.80306 -1.84016,-1.04168 -2.42505,-1.10385 -0.75631,-0.11619 -1.51271,-0.23234 -3.24799,-0.81392 -2.45506,-0.79178 -3.93127,-1.11823 -5.40737,-1.44469 -2.54907,-1.00984 -5.09827,-2.01979 -8.79017,-3.40347 -19.97504,-7.08204 -38.80723,-13.79036 -57.63944,-20.49868 -0.53814,-0.40057 -1.07627,-0.8012 -1.11642,-1.64701 5.94093,0.6615 11.38386,1.76823 17.0272,3.47619 1.8311,0.90091 3.46169,1.20065 5.06036,1.47088 -0.0321,-0.0294 -0.10216,-0.0815 -0.10216,-0.0815 8.48458,3.25557 16.79773,7.08754 25.48249,9.66969 43.32413,12.88094 86.41561,26.77396 130.26127,37.58295 25.01718,6.16709 51.34499,6.93884 77.03778,10.46624 25.43394,3.49184 50.9192,6.79191 76.17871,11.31188 19.22289,3.43977 38.14006,8.60544 57.15998,13.14267 2.73435,0.65229 5.29237,2.06588 7.86221,3.27569 0.0754,0.0356 -0.63801,1.74688 -0.98353,2.67696 -0.65931,-0.77517 -1.31873,-1.55032 -3.22084,-2.46709 -24.14577,-5.35733 -46.94056,-11.13141 -69.98779,-15.60423 -17.07106,-3.31327 -34.43951,-5.20198 -51.73567,-7.20578 -9.98474,-1.15688 -20.11717,-0.98705 -30.1329,-1.94119 -15.1305,-1.4414 -30.21714,-3.3432 -45.32241,-5.0494 0,0 0.21051,-0.0159 0.12699,-0.44241 -1.07617,-0.68231 -2.06897,-0.93808 -3.06166,-1.19394 z" id="path92" style="fill:#14183e;fill-opacity:1;stroke-width:1.74453"></path><path fill="#CDBBB5" opacity="1" stroke="none" d="m 483.90234,663.45542 c 5.56188,0.0772 11.64762,-0.0687 17.58675,0.79427 11.02918,1.60254 21.97297,3.79375 34.37625,5.87124 17.15465,2.39362 32.88516,4.65585 48.78176,7.22973 0.16611,0.31156 0.0961,1.01416 -0.49342,1.23493 -1.4137,0.37081 -2.23795,0.5209 -3.82275,0.53782 -4.32695,-0.0853 -7.89343,-0.0375 -12.14893,-0.16759 -2.9819,-0.57019 -5.2748,-0.96251 -7.99775,-1.95897 -7.87415,-1.50193 -15.31823,-2.39959 -22.76231,-3.2972 -6.31786,-0.74779 -12.65243,-1.3767 -18.94964,-2.27048 -10.06386,-1.4283 -20.1027,-3.03239 -30.89093,-4.54921 -1.56629,-1.05557 -2.39383,-2.12403 -3.67903,-3.42454 z" id="path120" style="fill:#14183e;fill-opacity:1;stroke-width:1.74453"></path><path fill="#6F4030" opacity="1" stroke="none" d="m 434.04623,653.26352 c 9.6751,2.20447 19.35021,4.40892 29.13904,7.18853 -10.71029,-0.4298 -21.53417,-1.43484 -33.75784,-2.496 -2.71742,0.0143 -4.0352,0.0849 -6.11151,-0.0287 -4.90448,-0.0777 -9.05039,0.0287 -13.19632,0.13527 -1.1044,-0.21396 -2.20878,-0.42793 -3.31307,-0.64191 -0.11335,-0.48191 -0.22668,-0.96383 -0.33998,-1.44575 6.52688,-1.53707 13.05386,-3.07417 20.70951,-4.10094 3.0426,0.80332 4.95633,1.0964 6.87017,1.38948 z" id="path143" style="fill:#14183e;fill-opacity:1;stroke-width:1.74453"></path><path fill="#CDBBB5" opacity="1" stroke="none" d="m 434.52911,652.72441 c -2.39672,0.24603 -4.31045,-0.0471 -6.63432,-0.75546 8.35798,-2.32871 17.05455,-4.73559 25.91394,-6.01823 9.07649,-1.31399 18.31248,-1.52721 28.23227,-2.18695 -0.24702,0.92652 -1.2478,1.8179 -2.16362,3.22666 -14.89848,2.07652 -29.88205,3.63568 -45.34827,5.73398 z" id="path166" style="fill:#14183e;fill-opacity:1;stroke-width:1.74453"></path><path fill="#CDBBB5" opacity="1" stroke="none" d="m 1146.3863,648.74774 c 2.4199,-0.94553 5.1245,-1.29052 8.1296,-2.2413 3.8082,0.55837 7.3161,1.72259 10.8239,2.88676 -0.072,0.70478 -0.1427,1.40951 -0.2139,2.11423 -6.1517,-0.71974 -12.3034,-1.43942 -18.7396,-2.75969 z" id="path229" style="fill:#14183e;fill-opacity:1;stroke-width:1.74453"></path><path fill="#CDBBB5" opacity="1" stroke="none" d="m 1069.7044,645.53467 c -10.6439,0.26831 -21.1264,0.2622 -32.5838,0.0185 -0.284,-0.2376 1.9072,-0.85626 1.9072,-0.85631 10.6403,-0.13238 18.4701,-0.32783 29.9212,-0.26246 0.8111,0.19783 0.9167,0.82584 0.7554,1.10035 z" id="path250" style="fill:#000000;stroke-width:1.74453"></path><path fill="#cdbbb5" opacity="1" stroke="none" d="m 936.47536,611.8381 c -1.6012,0.91252 -3.621,1.43164 -6.0838,1.59807 1.593,-0.89893 3.6292,-1.44517 6.0838,-1.59807 z" id="path308" style="stroke-width:1.74453"></path><path fill="#cdbbb5" opacity="1" stroke="none" d="m 758.57056,646.59454 c -1.02739,1.05919 -2.41129,1.76381 -4.38496,2.2633 0.94957,-1.00937 2.48913,-1.81358 4.38496,-2.2633 z" id="path314" style="stroke-width:1.74453"></path><path fill="#cdbbb5" opacity="1" stroke="none" d="m 746.42529,648.49592 c -1.06105,1.0274 -2.45357,1.66616 -4.44035,2.10688 0.97352,-0.96379 2.54121,-1.72968 4.44035,-2.10688 z" id="path321" style="stroke-width:1.74453"></path><path fill="#cdbbb5" opacity="1" stroke="none" d="m 730.81776,650.54599 c -1.11759,0.95132 -2.52768,1.47318 -4.5351,1.79713 1.016,-0.87413 2.62936,-1.55037 4.5351,-1.79713 z" id="path322" style="stroke-width:1.74453"></path><path fill="#cdbbb5" opacity="1" stroke="none" d="m 896.40975,615.26216 c -1.04677,1.01228 -2.44185,1.65967 -4.42053,2.12573 0.96842,-0.95118 2.52034,-1.72096 4.42053,-2.12573 z" id="path329" style="stroke-width:1.74453"></path><path fill="#cdbbb5" opacity="1" stroke="none" d="m 910.50339,613.89211 c -1.11356,0.96634 -2.52716,1.50282 -4.53086,1.84313 1.01687,-0.88845 2.62394,-1.58071 4.53086,-1.84313 z" id="path330" style="stroke-width:1.74453"></path><path fill="#fbe5df" opacity="1" stroke="none" d="m 462.6218,717.6209 c 1.43659,-0.27108 2.9128,0.0553 4.79852,0.77506 -1.31329,0.20305 -3.03622,0.0121 -4.79852,-0.77506 z" id="path331" style="stroke-width:1.74453"></path><path fill="#fbe5df" opacity="1" stroke="none" d="m 493.75975,834.71075 c -0.88888,0.4074 -1.88764,0.38258 -3.13045,-0.0981 0.84404,-0.41526 1.93237,-0.3747 3.13045,0.0981 z" id="path338" style="stroke-width:1.74453"></path><path fill="#cdbbb5" opacity="1" stroke="none" d="m 713.38584,652.11169 c -0.67507,0.74072 -1.59886,1.15268 -3.01215,1.35674 0.59468,-0.70047 1.67905,-1.19303 3.01215,-1.35674 z" id="path342" style="stroke-width:1.74453"></path><path fill="#cdbbb5" opacity="1" stroke="none" d="m 884.278,617.06419 c -0.56817,0.94552 -1.42777,1.55554 -2.81655,2.03079 0.48894,-0.8786 1.50696,-1.62251 2.81655,-2.03079 z" id="path345" style="stroke-width:1.74453"></path><path fill="#cdbbb5" opacity="1" stroke="none" d="m 765.70352,645.28257 c -0.59042,0.87334 -1.46141,1.41015 -2.85744,1.7981 0.50908,-0.81073 1.54298,-1.4727 2.85744,-1.7981 z" id="path346" style="stroke-width:1.74453"></path><path fill="#fbe5df" opacity="1" stroke="none" d="m 471.4816,719.62695 c 0.34094,-0.28281 0.84171,-0.0441 1.50964,0.715 -0.33892,0.28547 -0.84458,0.0474 -1.50964,-0.715 z" id="path359" style="stroke-width:1.74453"></path><path fill="#fbe5df" opacity="1" stroke="none" d="m 473.25722,847.16653 c 0.28335,-0.2203 0.8399,-0.14821 1.5927,0.3269 -0.36287,0.44348 -0.86811,0.29771 -1.5927,-0.3269 z" id="path360" style="stroke-width:1.74453"></path><path fill="#030202" opacity="1" stroke="none" d="m 589.21841,752.74773 c 15.50786,1.15657 30.5945,3.05837 45.725,4.49976 10.01573,0.95415 20.14816,0.78432 30.1329,1.94119 17.29616,2.00381 34.66462,3.89252 51.73567,7.20578 23.04723,4.47283 45.84202,10.24691 69.46019,15.5594 0.86885,8.98503 -7.79195,9.7899 -12.63584,12.91236 -10.11476,6.51995 -21.48158,11.20178 -32.60074,16.02353 -7.76586,3.36736 -16.00713,5.62511 -23.967,8.5654 -2.63191,0.97214 -5.04832,2.52799 -8.08954,4.08917 -3.02451,-0.075 -5.73894,0.0947 -7.98882,-0.84628 -41.06681,-17.17552 -79.55248,-38.56053 -111.77182,-69.95031 z" id="path375" style="stroke-width:1.74453"></path><path fill="#030202" opacity="1" stroke="none" d="m 740.41355,716.31784 c 6.83417,-8.0672 14.77251,-15.16687 21.38799,-23.33776 6.46064,-7.97973 8.64929,-17.84101 7.8012,-28.98339 19.55519,-3.58569 39.11624,-6.3876 59.39036,-9.34295 1.31638,7.88879 0.71021,16.25502 2.75959,23.91019 5.29845,19.79088 19.53016,32.51146 36.74529,42.24183 3.94085,2.22752 8.24948,3.80414 12.60815,6.27613 -13.43996,-1.15123 -27.05656,-3.42188 -40.76718,-4.53286 -25.85974,-2.09549 -51.76952,-3.58906 -77.6676,-5.18634 -7.22793,-0.44581 -14.48758,-0.37831 -22.2578,-1.04485 z" id="path377" style="stroke-width:1.74453"></path><path fill="#050303" opacity="1" stroke="none" d="m 671.45541,731.37412 c 18.54875,4.40967 35.90261,0.16887 53.46858,-7.3671 51.06529,-0.67805 97.96974,15.94347 145.33577,28.22025 -32.50587,0 -65.18754,0 -99.42464,0.14268 -20.13348,-0.15524 -38.7113,-0.45328 -57.28924,-0.7512 -3.87697,-0.14087 -7.75936,-0.19816 -11.62973,-0.44273 -5.22007,-0.32987 -10.43545,-0.75812 -15.64243,-1.2525 -1.111,-0.10567 -2.17333,-0.97045 -3.26568,-0.98705 -9.11238,-0.13906 -18.28384,0.44411 -27.32243,-0.40846 -7.4017,-0.69806 -14.58289,-3.51675 -21.9799,-4.5498 -6.03218,-0.84223 -12.25039,-0.2549 -18.36476,-0.63896 -4.6252,-0.29047 -9.21685,-1.11301 -14.44639,-2.30291 -0.63812,-1.6866 -0.65345,-2.76896 -0.0391,-3.8744 3.65113,0.11699 6.70778,0.62364 9.68852,0.33785 20.31278,-1.94865 40.60959,-4.06404 60.91151,-6.12567 z" id="path378" style="stroke-width:1.74453"></path><path fill="#020201" opacity="1" stroke="none" d="m 600.22589,737.18493 c 0.0152,1.08245 0.0305,2.16481 0.0445,3.78657 -0.78688,0.59638 -1.57247,0.65345 -3.13174,0.3189 -1.08905,-0.78847 -1.48334,-1.07777 -1.95662,-1.25963 -1.38923,-1.19 -2.77845,-2.3801 -4.91971,-4.27072 -6.18285,-3.76368 -13.7777,-5.53493 -16.55262,-10.18355 -4.49858,-7.53618 -10.9242,-12.33065 -16.89441,-17.99752 -1.28743,-1.22204 -1.3478,-3.68387 -2.11977,-5.51278 -1.76349,-4.17798 -3.93712,-8.21524 -5.31421,-12.51157 -0.81732,-2.54993 -0.89026,-5.58572 -0.3058,-8.17942 0.16441,-0.72963 3.91562,-0.42207 5.88057,-1.03907 1.97739,-0.6207 3.77932,-1.80031 5.65812,-2.73504 2.293,0.39221 4.5859,0.78453 7.6614,1.97101 3.00737,5.75774 5.52844,11.77331 11.78242,10.63533 9.37708,-1.70636 13.69378,3.36865 17.64454,10.03006 3.19221,5.3824 7.55738,6.88309 13.28078,4.2547 0.94105,0.45054 1.88209,0.90111 3.03951,2.59975 0.81903,10.27054 0.14396,18.53279 -10.6053,21.68698 -0.80391,0.23596 -0.86333,3.00885 -1.61793,5.03406 -0.75727,1.41179 -1.16551,2.39193 -1.57374,3.37194 z" id="path379" style="stroke-width:1.74453"></path><path fill="#050303" opacity="1" stroke="none" d="m 560.18425,676.99685 c -1.44885,1.53898 -3.25077,2.71859 -5.22817,3.33929 -1.96495,0.617 -5.71616,0.30944 -5.88057,1.03907 -0.58445,2.5937 -0.51151,5.62949 0.30581,8.17942 1.37708,4.29633 3.55072,8.33359 5.31421,12.51157 0.77196,1.82891 0.83234,4.29074 2.11976,5.51278 5.97021,5.66687 12.39584,10.46134 16.89441,17.99752 2.77492,4.64862 10.36978,6.41987 15.94442,10.06663 -8.17357,-1.51251 -16.49097,-3.60864 -25.4301,-5.90494 -7.24529,-12.93982 -14.03059,-25.59914 -20.41255,-38.45852 -2.56985,-5.17834 -4.25561,-10.79546 -6.36663,-16.89643 7.42118,0.21402 14.86526,1.11168 22.73941,2.61361 z" id="path380" style="stroke-width:1.74453"></path><path fill="#cdbbb5" opacity="1" stroke="none" d="m 714.16654,752.02774 c 17.95728,-0.11107 36.5351,0.18697 55.90853,0.51875 -17.89902,-0.014 -36.59345,-0.0618 -55.90853,-0.51875 z" id="path381" style="stroke-width:1.74453"></path><path fill="#030202" opacity="1" stroke="none" d="m 881.44196,728.1537 c 1.40241,-0.33179 3.09307,-0.088 5.0579,0.74098 -1.40709,0.33498 -3.08849,0.0849 -5.0579,-0.74098 z" id="path387" style="stroke-width:1.74453"></path><path fill="#fbe5df" opacity="1" stroke="none" d="m 497.56272,852.76684 c -0.69254,0.26822 -1.75764,0.11741 -3.22756,-0.39886 0.68167,-0.25033 1.76838,-0.13534 3.22756,0.39886 z" id="path388" style="stroke-width:1.74453"></path><path fill="#fbe5df" opacity="1" stroke="none" d="m 489.07984,851.02743 c -0.29431,0.25202 -0.86982,0.11295 -1.77765,-0.32647 0.27726,-0.22189 0.88674,-0.14331 1.77765,0.32647 z" id="path389" style="stroke-width:1.74453"></path><path fill="#050303" opacity="1" stroke="none" d="m 595.26721,740.43144 c 0.38811,-0.21881 0.7824,0.0704 1.2839,0.78666 -0.43113,0.3895 -0.8927,0.15439 -1.2839,-0.78666 z" id="path390" style="stroke-width:1.74453"></path><path fill="#070404" opacity="1" stroke="none" d="m 571.44236,658.15547 c 4.72986,5.86465 8.7133,11.81415 12.86785,18.32362 -15.55971,-1.70231 -31.29022,-3.96454 -47.76043,-6.25466 -2.44941,-5.38273 -4.15934,-10.73761 -5.99044,-16.73609 13.29802,1.15502 26.71742,2.95353 40.88302,4.66713 z" id="path392" style="stroke-width:1.74453"></path><path fill="#6F4030" opacity="1" stroke="none" d="m 584.15368,678.58559 c 15.72774,1.17047 30.86601,2.56176 46.73505,4.12464 0.31059,0.82632 -0.10971,1.48111 -0.70957,2.48125 -12.43331,-0.19916 -24.68709,-0.7437 -38.18125,-1.64945 -4.46238,-1.66924 -7.6845,-2.97738 -10.90653,-4.28552 0.82435,-0.15002 1.6486,-0.30011 3.0623,-0.67092 z" id="path395" style="fill:#14183e;fill-opacity:1;stroke-width:1.74453"></path><path fill="#030202" opacity="1" stroke="none" d="m 586.85418,751.14525 c 0.82488,-0.32764 1.81769,-0.0719 2.90599,0.71521 -0.84895,0.31037 -1.79362,0.0893 -2.90599,-0.71521 z" id="path509" style="stroke-width:1.74453"></path><path fill="#050303" opacity="1" stroke="none" d="m 580.33093,679.12341 c 3.98248,1.44124 7.2046,2.74938 10.86211,4.53905 6.67606,6.95273 12.91672,13.42387 19.47385,20.36235 -5.40695,3.09578 -9.77211,1.59509 -12.96433,-3.78731 -3.95075,-6.66141 -8.26746,-11.73642 -17.64454,-10.03006 -6.25398,1.13798 -8.77505,-4.87759 -11.09351,-10.45745 3.47299,-0.66405 7.03947,-0.71181 11.36642,-0.62658 z" id="path520" style="stroke-width:1.74453"></path><path fill="#050303" opacity="1" stroke="none" d="m 602.14865,733.38123 c 0.40557,-1.59345 0.46499,-4.36634 1.2689,-4.6023 10.74926,-3.15419 11.42433,-11.41644 10.82699,-21.20975 12.87509,6.24717 25.74486,13.26513 38.75666,20.86902 -16.85609,2.03831 -33.85431,3.49067 -50.85255,4.94303 z" id="path524" style="stroke-width:1.74453"></path><path fill="#6F4030" opacity="1" stroke="none" d="m 601.79963,733.81299 c 17.34726,-1.88412 34.34548,-3.33648 51.83532,-5.21123 12.37123,-1.17148 24.25087,-1.92065 36.13059,-2.66984 0.0576,0.4469 0.11525,0.89368 0.17282,1.34057 -5.92528,0.94104 -11.85066,1.8822 -18.12945,3.46244 -20.65542,2.70082 -40.95223,4.81621 -61.26501,6.76486 -2.98075,0.28579 -6.03739,-0.22084 -9.68853,-0.33785 -0.22126,-0.95702 0.18699,-1.93716 0.94426,-3.34895 z" id="path525" style="fill:#14183e;fill-opacity:1;stroke-width:1.74453"></path></g>


















</svg></svg></g></svg>